<svg width="171" height="36" viewBox="0 0 171 36" fill="none" xmlns="http://www.w3.org/2000/svg">
<path d="M30.2502 6L38.2758 16.0046C38.7442 16.5684 39 17.2731 39 18C39 18.7269 38.7442 19.4316 38.2758 19.9954L30.2502 30M23.25 6L31.2757 16.0046C31.7441 16.5684 31.9999 17.2731 31.9999 18C31.9999 18.7269 31.7441 19.4316 31.2757 19.9954L23.25 30M16.6437 28.992C16.3841 29.3043 16.0574 29.5566 15.6868 29.7308C15.3162 29.9051 14.9109 29.997 14.4999 30C13.6808 30 12.9003 29.6331 12.3561 28.992L4.72418 19.9954C4.25575 19.4316 4 18.7269 4 18C4 17.2731 4.25575 16.5684 4.72418 16.0046L12.3561 7.008C12.6156 6.69572 12.9423 6.44344 13.3129 6.26919C13.6835 6.09494 14.0888 6.00302 14.4999 6C15.3189 6 16.0994 6.36686 16.6437 7.008L24.2755 16.0046C24.744 16.5684 24.9997 17.2731 24.9997 18C24.9997 18.7269 24.744 19.4316 24.2755 19.9954L16.6437 28.992Z" stroke="url(#paint0_linear_3_136)" stroke-width="4" stroke-linecap="round" stroke-linejoin="round"/>
<path d="M47.85 28C47.63 28 47.45 27.93 47.31 27.79C47.17 27.65 47.1 27.47 47.1 27.25V7.75C47.1 7.53 47.17 7.35 47.31 7.21C47.45 7.07 47.63 7 47.85 7H61.62C61.84 7 62.02 7.07 62.16 7.21C62.32 7.35 62.4 7.53 62.4 7.75V10.78C62.4 11 62.32 11.18 62.16 11.32C62.02 11.46 61.84 11.53 61.62 11.53H52.38V15.94H61.02C61.24 15.94 61.42 16.02 61.56 16.18C61.72 16.32 61.8 16.5 61.8 16.72V19.72C61.8 19.92 61.72 20.1 61.56 20.26C61.42 20.4 61.24 20.47 61.02 20.47H52.38V27.25C52.38 27.47 52.31 27.65 52.17 27.79C52.03 27.93 51.85 28 51.63 28H47.85ZM65.772 28C65.552 28 65.372 27.93 65.232 27.79C65.092 27.65 65.022 27.47 65.022 27.25V13.15C65.022 12.95 65.092 12.78 65.232 12.64C65.372 12.48 65.552 12.4 65.772 12.4H69.222C69.442 12.4 69.622 12.48 69.762 12.64C69.902 12.78 69.972 12.95 69.972 13.15V14.35C70.512 13.73 71.152 13.25 71.892 12.91C72.652 12.57 73.502 12.4 74.442 12.4H75.762C75.962 12.4 76.132 12.47 76.272 12.61C76.432 12.75 76.512 12.93 76.512 13.15V16.24C76.512 16.44 76.432 16.62 76.272 16.78C76.132 16.92 75.962 16.99 75.762 16.99H72.852C72.032 16.99 71.392 17.22 70.932 17.68C70.492 18.12 70.272 18.75 70.272 19.57V27.25C70.272 27.47 70.192 27.65 70.032 27.79C69.892 27.93 69.712 28 69.492 28H65.772ZM83.0613 28.3C81.9813 28.3 81.0113 28.1 80.1513 27.7C79.3113 27.28 78.6413 26.72 78.1413 26.02C77.6413 25.32 77.3913 24.53 77.3913 23.65C77.3913 22.23 77.9713 21.11 79.1313 20.29C80.2913 19.45 81.8313 18.88 83.7513 18.58L87.5013 18.01V17.59C87.5013 16.87 87.3513 16.32 87.0513 15.94C86.7513 15.56 86.2013 15.37 85.4013 15.37C84.8413 15.37 84.3813 15.48 84.0213 15.7C83.6813 15.92 83.4113 16.22 83.2113 16.6C83.0313 16.86 82.7813 16.99 82.4613 16.99H79.1013C78.8813 16.99 78.7113 16.93 78.5913 16.81C78.4713 16.67 78.4213 16.51 78.4413 16.33C78.4413 15.97 78.5713 15.56 78.8313 15.1C79.1113 14.62 79.5313 14.15 80.0913 13.69C80.6513 13.23 81.3713 12.85 82.2513 12.55C83.1313 12.25 84.1913 12.1 85.4313 12.1C86.7313 12.1 87.8413 12.25 88.7613 12.55C89.6813 12.85 90.4213 13.27 90.9813 13.81C91.5613 14.35 91.9913 14.99 92.2713 15.73C92.5513 16.45 92.6913 17.25 92.6913 18.13V27.25C92.6913 27.47 92.6113 27.65 92.4513 27.79C92.3113 27.93 92.1413 28 91.9413 28H88.4613C88.2413 28 88.0613 27.93 87.9213 27.79C87.7813 27.65 87.7113 27.47 87.7113 27.25V26.2C87.4513 26.58 87.1013 26.93 86.6613 27.25C86.2213 27.57 85.7013 27.82 85.1013 28C84.5213 28.2 83.8413 28.3 83.0613 28.3ZM84.4713 24.88C85.0513 24.88 85.5713 24.76 86.0313 24.52C86.5113 24.26 86.8813 23.87 87.1413 23.35C87.4213 22.81 87.5613 22.14 87.5613 21.34V20.92L85.0113 21.37C84.0713 21.53 83.3813 21.78 82.9413 22.12C82.5213 22.44 82.3113 22.82 82.3113 23.26C82.3113 23.6 82.4113 23.89 82.6113 24.13C82.8113 24.37 83.0713 24.56 83.3913 24.7C83.7113 24.82 84.0713 24.88 84.4713 24.88ZM96.8266 28C96.6066 28 96.4266 27.93 96.2866 27.79C96.1466 27.65 96.0766 27.47 96.0766 27.25V13.15C96.0766 12.93 96.1466 12.75 96.2866 12.61C96.4266 12.47 96.6066 12.4 96.8266 12.4H100.097C100.317 12.4 100.497 12.47 100.637 12.61C100.777 12.75 100.847 12.93 100.847 13.15V14.17C101.247 13.63 101.807 13.16 102.527 12.76C103.247 12.34 104.097 12.12 105.077 12.1C107.377 12.06 108.957 12.93 109.817 14.71C110.277 13.95 110.937 13.33 111.797 12.85C112.657 12.35 113.597 12.1 114.617 12.1C115.657 12.1 116.587 12.34 117.407 12.82C118.247 13.28 118.917 14 119.417 14.98C119.917 15.94 120.167 17.19 120.167 18.73V27.25C120.167 27.47 120.087 27.65 119.927 27.79C119.787 27.93 119.617 28 119.417 28H115.937C115.717 28 115.527 27.93 115.367 27.79C115.227 27.65 115.157 27.47 115.157 27.25V18.94C115.157 18.24 115.057 17.69 114.857 17.29C114.657 16.87 114.387 16.57 114.047 16.39C113.707 16.21 113.317 16.12 112.877 16.12C112.517 16.12 112.157 16.21 111.797 16.39C111.457 16.57 111.177 16.87 110.957 17.29C110.757 17.69 110.657 18.24 110.657 18.94V27.25C110.657 27.47 110.587 27.65 110.447 27.79C110.307 27.93 110.127 28 109.907 28H106.427C106.207 28 106.027 27.93 105.887 27.79C105.747 27.65 105.677 27.47 105.677 27.25V18.94C105.677 18.24 105.567 17.69 105.347 17.29C105.127 16.87 104.847 16.57 104.507 16.39C104.167 16.21 103.787 16.12 103.367 16.12C103.007 16.12 102.647 16.21 102.287 16.39C101.947 16.57 101.667 16.87 101.447 17.29C101.247 17.69 101.147 18.23 101.147 18.91V27.25C101.147 27.47 101.067 27.65 100.907 27.79C100.767 27.93 100.587 28 100.367 28H96.8266ZM130.728 28.3C128.368 28.3 126.488 27.66 125.088 26.38C123.688 25.1 122.958 23.2 122.898 20.68C122.898 20.54 122.898 20.36 122.898 20.14C122.898 19.92 122.898 19.75 122.898 19.63C122.958 18.05 123.308 16.7 123.948 15.58C124.608 14.44 125.508 13.58 126.648 13C127.808 12.4 129.158 12.1 130.698 12.1C132.458 12.1 133.908 12.45 135.048 13.15C136.208 13.85 137.078 14.8 137.658 16C138.238 17.2 138.528 18.57 138.528 20.11V20.83C138.528 21.05 138.448 21.23 138.288 21.37C138.148 21.51 137.978 21.58 137.778 21.58H128.178C128.178 21.6 128.178 21.63 128.178 21.67C128.178 21.71 128.178 21.75 128.178 21.79C128.198 22.37 128.298 22.9 128.478 23.38C128.658 23.86 128.938 24.24 129.318 24.52C129.698 24.8 130.158 24.94 130.698 24.94C131.098 24.94 131.428 24.88 131.688 24.76C131.968 24.62 132.198 24.47 132.378 24.31C132.558 24.13 132.698 23.98 132.798 23.86C132.978 23.66 133.118 23.54 133.218 23.5C133.338 23.44 133.518 23.41 133.758 23.41H137.478C137.678 23.41 137.838 23.47 137.958 23.59C138.098 23.69 138.158 23.84 138.138 24.04C138.118 24.38 137.948 24.79 137.628 25.27C137.308 25.75 136.838 26.23 136.218 26.71C135.618 27.17 134.858 27.55 133.938 27.85C133.018 28.15 131.948 28.3 130.728 28.3ZM128.178 18.61H133.248V18.55C133.248 17.91 133.148 17.35 132.948 16.87C132.768 16.39 132.478 16.02 132.078 15.76C131.698 15.5 131.238 15.37 130.698 15.37C130.158 15.37 129.698 15.5 129.318 15.76C128.958 16.02 128.678 16.39 128.478 16.87C128.278 17.35 128.178 17.91 128.178 18.55V18.61ZM142.09 28C141.87 28 141.69 27.93 141.55 27.79C141.41 27.65 141.34 27.47 141.34 27.25V13.15C141.34 12.93 141.41 12.75 141.55 12.61C141.69 12.47 141.87 12.4 142.09 12.4H145.63C145.83 12.4 146 12.47 146.14 12.61C146.3 12.75 146.38 12.93 146.38 13.15V27.25C146.38 27.47 146.3 27.65 146.14 27.79C146 27.93 145.83 28 145.63 28H142.09ZM142.06 10.15C141.84 10.15 141.66 10.08 141.52 9.94C141.38 9.8 141.31 9.62 141.31 9.4V6.73C141.31 6.51 141.38 6.33 141.52 6.19C141.66 6.03 141.84 5.95 142.06 5.95H145.63C145.85 5.95 146.03 6.03 146.17 6.19C146.33 6.33 146.41 6.51 146.41 6.73V9.4C146.41 9.62 146.33 9.8 146.17 9.94C146.03 10.08 145.85 10.15 145.63 10.15H142.06ZM157.421 28.3C155.741 28.3 154.321 28.03 153.161 27.49C152.021 26.95 151.141 26.18 150.521 25.18C149.921 24.16 149.581 22.95 149.501 21.55C149.481 21.15 149.471 20.7 149.471 20.2C149.471 19.68 149.481 19.23 149.501 18.85C149.581 17.43 149.941 16.22 150.581 15.22C151.221 14.22 152.111 13.45 153.251 12.91C154.411 12.37 155.801 12.1 157.421 12.1C159.061 12.1 160.451 12.37 161.591 12.91C162.751 13.45 163.651 14.22 164.291 15.22C164.931 16.22 165.291 17.43 165.371 18.85C165.391 19.23 165.401 19.68 165.401 20.2C165.401 20.7 165.391 21.15 165.371 21.55C165.291 22.95 164.941 24.16 164.321 25.18C163.721 26.18 162.841 26.95 161.681 27.49C160.541 28.03 159.121 28.3 157.421 28.3ZM157.421 24.64C158.321 24.64 158.971 24.37 159.371 23.83C159.791 23.29 160.031 22.48 160.091 21.4C160.111 21.1 160.121 20.7 160.121 20.2C160.121 19.7 160.111 19.3 160.091 19C160.031 17.94 159.791 17.14 159.371 16.6C158.971 16.04 158.321 15.76 157.421 15.76C156.541 15.76 155.891 16.04 155.471 16.6C155.051 17.14 154.821 17.94 154.781 19C154.761 19.3 154.751 19.7 154.751 20.2C154.751 20.7 154.761 21.1 154.781 21.4C154.821 22.48 155.051 23.29 155.471 23.83C155.891 24.37 156.541 24.64 157.421 24.64Z" fill="url(#paint1_linear_3_136)"/>
<defs>
<linearGradient id="paint0_linear_3_136" x1="3.99968" y1="18" x2="39.0003" y2="18" gradientUnits="userSpaceOnUse">
<stop stop-color="#44A3FF"/>
<stop offset="1" stop-color="#9482FC"/>
</linearGradient>
<linearGradient id="paint1_linear_3_136" x1="47.8855" y1="18.5914" x2="167.945" y2="21.9879" gradientUnits="userSpaceOnUse">
<stop stop-color="#55A7FF"/>
<stop offset="1" stop-color="#9381FA"/>
</linearGradient>
</defs>
</svg>
